<svg xmlns="http://www.w3.org/2000/svg" width="250" height="28" fill="none" viewBox="0 0 250 28">
<!-- SVG created with Arrow, by QuiverAI (https://quiver.ai) -->
  <path d="m27.11 24.96c-2.95 0.49-5.4-2.05-7.23-6.76l-5.96-13.02c-1.41-3.07-3.18-3.09-4.93-3.09-1.48 0-2.88 0.38-3.81 0.98l0.28 0.56c2.13-1.08 4 0.11 4.82 2.08l-5.46 13.5c-0.54 1.39-1.03 1.63-1.98 1.63v0.52h5.69v-0.52c-1.24 0-1.81-0.45-1.19-2.05l1.27-3.3h6.01l1.16 2.95c2.4 6.18 6.03 7.87 9.66 7.6 1.11-0.08 1.93-0.36 2.34-0.61l-0.67-0.47zm-17.93-10.6 2.58-6.65 2.45 6.65h-5.03z" fill="url(#paint0_linear_1312_114)"/>
  <path d="m32.09 3.61v0.52c1.39 0 1.75 0.6 1 2.47l-4.16 9.21-4.22-9.6c-0.57-1.35-0.1-2.08 1.06-2.08v-0.52h-8.17v0.52c1.06 0 1.58 0.44 2.3 2.03l8.01 15.51h0.55l7.18-15.75c0.65-1.48 1.42-1.79 2.27-1.79v-0.52h-5.82z" fill="url(#paint1_linear_1312_114)"/>
  <path d="m51.92 15.73c-0.9 3.24-2.33 4.24-5.41 4.24h-2.09v-7.34h2.89c1.97 0 2.46 0.8 2.46 2.33h0.5v-5.64h-0.5c0 1.63-0.49 2.33-2.46 2.33h-2.89v-7.03h3.21c2.22 0 2.85 0.75 3.13 2.67h0.52l-0.16-3.68h-12.39v0.52c1.14 0 1.71 0.47 1.71 1.93v12.86c0 1.44-0.57 1.92-1.71 1.92v0.52h12.76l0.95-5.63h-0.52z" fill="url(#paint2_linear_1312_114)"/>
  <path d="m65.97 3.61v0.52c1.24 0 1.81 0.6 1.81 2.29v8.57l-12.23-11.67h-0.34v15.6c0 1.44-0.57 1.92-1.73 1.92v0.52h6.54v-0.52c-1.34 0-1.96-0.55-1.96-2.32v-9.1l12.65 12.25h0.42v-15.61c0-1.46 0.57-1.93 1.73-1.93v-0.52h-6.89z" fill="url(#paint3_linear_1312_114)"/>
  <path d="m88.31 3.61v0.52c1.21 0 1.78 0.57 1.78 2.26v8.21c0 3.63-1.6 5.48-4.86 5.48-3.24 0-4.91-1.82-4.91-5.77v-8.25c0-1.46 0.57-1.93 1.86-1.93v-0.52h-7.07v0.52c1.24 0 1.81 0.47 1.81 1.93v8.2c0 4.92 2.66 7.41 7.82 7.41 4.78 0 6.92-2.41 6.92-6.97v-8.28c0-1.72 0.57-2.29 1.76-2.29v-0.52h-5.11z" fill="url(#paint4_linear_1312_114)"/>
  <path d="m107.8 15.73c-0.9 3.24-2.34 4.24-5.41 4.24h-2.09v-7.34h2.89c1.97 0 2.46 0.8 2.46 2.33h0.5v-5.64h-0.5c0 1.63-0.49 2.33-2.46 2.33h-2.89v-7.03h3.21c2.22 0 2.84 0.75 3.13 2.67h0.52l-0.16-3.68h-11.87v0.52c1.14 0 1.71 0.47 1.71 1.93v12.86c0 1.44-0.57 1.92-1.71 1.92v0.52h12.75l0.95-5.63h-1.03z" fill="url(#paint5_linear_1312_114)"/>
  <path d="m142.3 3.61h-8.94v0.52c1.14 0 1.71 0.47 1.71 1.93v12.86c0 1.44-0.57 1.92-1.71 1.92v0.52h8.94c6.86 0 9.47-4.19 9.47-8.88s-2.61-8.87-9.47-8.87zm-0.32 16.57h-2.92v-15.4h2.92c4.56 0 5.97 3.9 5.97 7.7s-1.41 7.7-5.97 7.7z" fill="url(#paint6_linear_1312_114)"/>
  <path d="m165.5 3.61v0.52c1.39 0 1.75 0.6 1 2.47l-4.32 9.55-4.33-9.94c-0.57-1.35-0.1-2.08 1.06-2.08v-0.52h-8.17v0.52c1.06 0 1.58 0.44 2.3 2.03l7.78 15.51h0.54l7.4-15.75c0.75-1.61 1.45-1.79 2.4-1.79v-0.52h-5.66z" fill="url(#paint7_linear_1312_114)"/>
  <path d="m170.8 3.61v0.52c1.34 0 2.01 0.47 2.01 1.93v12.86c0 1.44-0.67 1.92-2.01 1.92v0.52h7.93v-0.52c-1.27 0-1.96-0.48-1.96-1.92v-12.86c0-1.46 0.69-1.93 1.96-1.93v-0.52h-7.93z" fill="url(#paint8_linear_1312_114)"/>
  <path d="m188.1 10.46c-2.92-1.65-3.9-2.4-3.9-3.78 0-1.39 1.11-2.24 3.1-2.24 2.4 0 3.54 1.3 3.9 3.27h0.52l-0.26-4.28c-1.16 0.08-2.91-0.21-4.63-0.21-3.5 0-5.59 1.94-5.59 4.86 0 2.33 1.34 3.65 4.47 5.43 2.79 1.48 3.99 2.3 3.99 4.13 0 1.72-1.29 2.78-3.43 2.78-2.57 0-4.11-1.55-4.42-4.3h-0.52l-0.21 4.4c1.51 0.75 3.5 1.15 5.59 1.15 4.16 0 6.1-2.28 6.1-5.31 0-2.54-1.61-4.24-4.71-5.9z" fill="url(#paint9_linear_1312_114)"/>
  <path d="m204.8 3.22c-7.18 0-10.13 4.39-10.13 9.23 0 4.85 2.95 9.22 10.13 9.22 7.21 0 10.03-4.37 9.23-10.41-0.65-4.97-3.79-8.04-9.23-8.04zm0 17.2c-4.13 0-5.83-3.8-5.83-7.97 0-4.16 1.7-7.98 5.83-7.98 4.14 0 5.72 3.82 5.72 7.98 0 4.17-1.58 7.97-5.72 7.97z" fill="url(#paint10_linear_1312_114)"/>
  <path d="m233.9 20.52c-1.46-0.7-2.7-2.57-4.79-6.7 2.14-1.06 3.17-2.98 3.17-5.09 0-2.99-1.97-5.12-6.11-5.12h-10.47v0.52c1.14 0 1.81 0.47 1.81 1.93v12.86c0 1.44-0.67 1.92-1.81 1.92v0.52h8.01v-0.52c-1.29 0-1.96-0.53-1.96-2.16v-13.9h2.45c2.66 0 4.1 1.77 4.1 4.33 0 2.25-1.11 4.22-3.61 4.22h-1.08v0.41c1.29 0.18 2.04 1.08 2.79 2.88 1.51 3.8 2.8 4.89 7.47 4.79l1.43-0.05v-0.52c-0.54 0-0.98-0.11-1.4-0.32z" fill="url(#paint11_linear_1312_114)"/>
  <path d="m242.7 10.46c-2.92-1.65-3.9-2.4-3.9-3.78 0-1.39 1.11-2.24 3.1-2.24 2.4 0 3.54 1.3 3.9 3.27h0.52l-0.26-4.28c-1.16 0.08-2.91-0.21-4.63-0.21-3.5 0-5.59 1.94-5.59 4.86 0 2.33 1.34 3.65 4.47 5.43 2.79 1.48 3.99 2.3 3.99 4.13 0 1.72-1.29 2.78-3.43 2.78-2.57 0-4.11-1.55-4.42-4.3h-0.52l-0.21 4.4c1.51 0.75 3.5 1.15 5.59 1.15 4.16 0 6.1-2.28 6.1-5.31 0-2.54-1.61-4.24-4.71-5.9z" fill="url(#paint12_linear_1312_114)"/>
  <path d="m138.6 24.91c-2.95 0.49-5.4-1.84-7.23-6.55l-5.16-12.92c-1.41-3.33-3.16-3.35-4.91-3.35-1.48 0-2.89 0.38-3.81 0.98l0.28 0.56c1.87-1.03 3.59-0.18 4.54 2.08l-5.96 13.5c-0.7 1.65-1.22 1.63-1.92 1.63v0.52h4.97v-0.52c-0.95 0-1.26-0.45-0.64-2.05l1.03-2.87h5.52l1.34 3.39c2.4 5.7 6.03 7 9.66 6.73 1.11-0.08 1.93-0.36 2.34-0.61l-0.05-0.52zm-18.31-10.1 2.55-6.99 2.87 6.99h-5.42z" fill="url(#paint13_linear_1312_114)"/>
  <defs>
    <linearGradient id="paint0_linear_1312_114" x1="15.31" x2="15.31" y1="2.088" y2="26.07" gradientUnits="userSpaceOnUse">
      <stop stop-color="#2A597A" offset="0"/>
      <stop stop-color="#0D324B" offset="1"/>
    </linearGradient>
    <linearGradient id="paint1_linear_1312_114" x1="27.86" x2="27.86" y1="3.605" y2="21.67" gradientUnits="userSpaceOnUse">
      <stop stop-color="#4E809F" offset="0"/>
      <stop stop-color="#163A56" offset="1"/>
    </linearGradient>
    <linearGradient id="paint2_linear_1312_114" x1="45.08" x2="45.08" y1="3.605" y2="21.36" gradientUnits="userSpaceOnUse">
      <stop stop-color="#4E809F" offset="0"/>
      <stop stop-color="#163A56" offset="1"/>
    </linearGradient>
    <linearGradient id="paint3_linear_1312_114" x1="63.17" x2="63.17" y1="3.321" y2="21.67" gradientUnits="userSpaceOnUse">
      <stop stop-color="#4E809F" offset="0"/>
      <stop stop-color="#163A56" offset="1"/>
    </linearGradient>
    <linearGradient id="paint4_linear_1312_114" x1="84.27" x2="84.27" y1="3.605" y2="21.67" gradientUnits="userSpaceOnUse">
      <stop stop-color="#4E809F" offset="0"/>
      <stop stop-color="#163A56" offset="1"/>
    </linearGradient>
    <linearGradient id="paint5_linear_1312_114" x1="102" x2="102" y1="3.605" y2="21.36" gradientUnits="userSpaceOnUse">
      <stop stop-color="#4E809F" offset="0"/>
      <stop stop-color="#163A56" offset="1"/>
    </linearGradient>
    <linearGradient id="paint6_linear_1312_114" x1="142.5" x2="142.5" y1="3.605" y2="21.36" gradientUnits="userSpaceOnUse">
      <stop stop-color="#4E809F" offset="0"/>
      <stop stop-color="#163A56" offset="1"/>
    </linearGradient>
    <linearGradient id="paint7_linear_1312_114" x1="160.9" x2="160.9" y1="3.605" y2="21.67" gradientUnits="userSpaceOnUse">
      <stop stop-color="#4E809F" offset="0"/>
      <stop stop-color="#163A56" offset="1"/>
    </linearGradient>
    <linearGradient id="paint8_linear_1312_114" x1="174.8" x2="174.8" y1="3.605" y2="21.36" gradientUnits="userSpaceOnUse">
      <stop stop-color="#4E809F" offset="0"/>
      <stop stop-color="#163A56" offset="1"/>
    </linearGradient>
    <linearGradient id="paint9_linear_1312_114" x1="187" x2="187" y1="3.221" y2="21.67" gradientUnits="userSpaceOnUse">
      <stop stop-color="#4E809F" offset="0"/>
      <stop stop-color="#163A56" offset="1"/>
    </linearGradient>
    <linearGradient id="paint10_linear_1312_114" x1="204.5" x2="204.5" y1="3.221" y2="21.67" gradientUnits="userSpaceOnUse">
      <stop stop-color="#2A597A" offset="0"/>
      <stop stop-color="#0D324B" offset="1"/>
    </linearGradient>
    <linearGradient id="paint11_linear_1312_114" x1="225.5" x2="225.5" y1="3.605" y2="21.42" gradientUnits="userSpaceOnUse">
      <stop stop-color="#2A597A" offset="0"/>
      <stop stop-color="#0D324B" offset="1"/>
    </linearGradient>
    <linearGradient id="paint12_linear_1312_114" x1="241.6" x2="241.6" y1="3.221" y2="21.67" gradientUnits="userSpaceOnUse">
      <stop stop-color="#2A597A" offset="0"/>
      <stop stop-color="#0D324B" offset="1"/>
    </linearGradient>
    <linearGradient id="paint13_linear_1312_114" x1="126.5" x2="126.5" y1="2.088" y2="26.07" gradientUnits="userSpaceOnUse">
      <stop stop-color="#6BA4C6" offset="0"/>
      <stop stop-color="#386C8E" offset="1"/>
    </linearGradient>
  </defs>
</svg>