<svg xmlns="http://www.w3.org/2000/svg" width="70" height="28" viewBox="0 0 120 28" fill="none">

  <!-- A #2 shifted right -->
  <g transform="translate(-97.3,0)">
    <path d="m138.6 24.91c-2.95 0.49-5.4-1.84-7.23-6.55l-5.16-12.92c-1.41-3.33-3.16-3.35-4.91-3.35-1.48 0-2.89 0.38-3.81 0.98l0.28 0.56c1.87-1.03 3.59-0.18 4.54 2.08l-5.96 13.5c-0.7 1.65-1.22 1.63-1.92 1.63v0.52h4.97v-0.52c-0.95 0-1.26-0.45-0.64-2.05l1.03-2.87h5.52l1.34 3.39c2.4 5.7 6.03 7 9.66 6.73 1.11-0.08 1.93-0.36 2.34-0.61l-0.05-0.52zm-18.31-10.1 2.55-6.99 2.87 6.99h-5.42z" fill="url(#paint1)"/>
  </g>

  <!-- A #1 -->
  <path d="m27.11 24.96c-2.95 0.49-5.4-2.05-7.23-6.76l-5.96-13.02c-1.41-3.07-3.18-3.09-4.93-3.09-1.48 0-2.88 0.38-3.81 0.98l0.28 0.56c2.13-1.08 4 0.11 4.82 2.08l-5.46 13.5c-0.54 1.39-1.03 1.63-1.98 1.63v0.52h5.69v-0.52c-1.24 0-1.81-0.45-1.19-2.05l1.27-3.3h6.01l1.16 2.95c2.4 6.18 6.03 7.87 9.66 7.6 1.11-0.08 1.93-0.36 2.34-0.61l-0.67-0.47zm-17.93-10.6 2.58-6.65 2.45 6.65h-5.03z" fill="url(#paint0)"/>

  <defs>
    <linearGradient id="paint0" x1="15.31" x2="15.31" y1="2.088" y2="26.07" gradientUnits="userSpaceOnUse">
      <stop stop-color="#2A597A"/>
      <stop offset="1" stop-color="#0D324B"/>
    </linearGradient>

    <linearGradient id="paint1" x1="126.5" x2="126.5" y1="2.088" y2="26.07" gradientUnits="userSpaceOnUse">
      <stop stop-color="#6BA4C6"/>
      <stop offset="1" stop-color="#386C8E"/>
    </linearGradient>
  </defs>

</svg>